<?xml version="1.0" encoding="utf-8"?>
<!-- Generator: Adobe Illustrator 21.1.0, SVG Export Plug-In . SVG Version: 6.00 Build 0)  -->
<svg version="1.1" id="Ebene_1" xmlns="http://www.w3.org/2000/svg" xmlns:xlink="http://www.w3.org/1999/xlink" x="0px" y="0px"
	 viewBox="0 0 601.7 754.3" style="enable-background:new 0 0 601.7 754.3;" xml:space="preserve">
<style type="text/css">
	.st0{fill:#FFFFFF;stroke:#1D1D1B;stroke-miterlimit:10;}
	.st1{fill:#1D1D1B;}
	.st2{fill:none;stroke:#1D1D1B;stroke-miterlimit:10;}
	.st3{fill:none;stroke:#1D1D1B;stroke-width:1.5;stroke-miterlimit:10;}
	.st4{fill:none;stroke:#1D1D1B;stroke-width:0.5;stroke-miterlimit:10;}
	.st5{fill:none;stroke:#1D1D1B;stroke-width:4;stroke-miterlimit:10;}
	.st6{fill:none;stroke:#1D1D1B;stroke-width:8;stroke-miterlimit:10;}
	.st7{fill:none;stroke:#1D1D1B;stroke-width:6;stroke-miterlimit:10;}
	.st8{fill:none;stroke:#1D1D1B;stroke-width:10;stroke-miterlimit:10;}
	.st9{fill:none;stroke:#1D1D1B;stroke-width:7;stroke-miterlimit:10;}
	.st10{fill:none;stroke:#1D1D1B;stroke-width:2;stroke-miterlimit:10;}
	.st11{fill:none;stroke:#1D1D1B;stroke-miterlimit:10;stroke-dasharray:2.0089,2.0089;}
	.st12{fill:none;stroke:#1D1D1B;stroke-width:3;stroke-miterlimit:10;}
	.st13{fill:none;stroke:#B1B1B1;stroke-miterlimit:10;}
</style>
<title>Plan-1</title>
<rect x="324" y="73.9" class="st0" width="149.2" height="358.8"/>
<g>
	<path class="st1" d="M341.8,100.9h-5.2v4.8h5.8v1.4h-7.5V93.8h7.2v1.4h-5.5v4.2h5.2V100.9z"/>
	<path class="st1" d="M354.8,106.6c-1.3,0.5-2.7,0.7-4.1,0.7c-3.4,0.3-6.5-2.2-6.8-5.6c0-0.4,0-0.7,0-1.1c0-4,2.7-6.9,7.2-6.9
		c1.1,0,2.3,0.2,3.3,0.6l-0.4,1.4c-0.9-0.4-1.9-0.6-2.9-0.6c-2.7-0.2-5.1,1.8-5.4,4.6c0,0.3,0,0.5,0,0.8c0,3.4,2,5.4,5.1,5.4
		c0.8,0,1.6-0.1,2.3-0.4v-4h-2.7v-1.4h4.4L354.8,106.6z"/>
</g>
<line class="st2" x1="278.2" y1="725.3" x2="320.6" y2="725.3"/>
<line class="st2" x1="354" y1="728.6" x2="409.5" y2="728.6"/>
<line class="st2" x1="187.4" y1="728.6" x2="220.6" y2="728.6"/>
<line class="st2" x1="113.5" y1="728.6" x2="146.6" y2="728.6"/>
<line class="st2" x1="40.5" y1="728.6" x2="73.6" y2="728.6"/>
<line class="st2" x1="448.2" y1="728.6" x2="484.5" y2="728.6"/>
<line class="st2" x1="523.8" y1="728.6" x2="555.4" y2="728.6"/>
<path class="st3" d="M354,737.5v9.5h-25.4c0,0,0.8,6.5-29.2,6.5s-32.8-6.5-32.8-6.5h-21.9v-9.5"/>
<path class="st4" d="M339,545.7c0,11.2,13.2,14.9,13.2,14.9h46c0,0,3.6,0.3,3.6-2.6c0-2.9,0-30.6,0-31.2c0-0.9-0.3-3.4-3-3.4
	c-3.1,0-44.7,0-44.7,0s-15,0.9-15,12.9"/>
<path class="st4" d="M350.1,496.2l-0.2,24.1c-0.2,1.3,0.6,2.6,1.8,3.1"/>
<path class="st4" d="M350.1,586.2l-0.2-22.3c-0.2-1.4,0.6-2.8,1.8-3.5"/>
<line class="st4" x1="355.8" y1="496.2" x2="355.8" y2="522.9"/>
<line class="st4" x1="361.3" y1="496.2" x2="361.3" y2="522.9"/>
<line class="st4" x1="366.7" y1="496.2" x2="366.7" y2="522.9"/>
<line class="st4" x1="372.2" y1="496.2" x2="372.2" y2="522.9"/>
<line class="st4" x1="377.8" y1="496.2" x2="377.8" y2="522.9"/>
<line class="st4" x1="383.3" y1="496.2" x2="383.3" y2="522.9"/>
<line class="st4" x1="388.2" y1="496.2" x2="388.2" y2="522.9"/>
<line class="st4" x1="393.7" y1="496.2" x2="393.7" y2="522.9"/>
<line class="st4" x1="398" y1="496.2" x2="398" y2="522.9"/>
<path class="st4" d="M399.6,523.1c1.5,0,2.8-1.2,3-2.7v-24.1h-57.8l-0.2,25.5c0.1,1.5,1,2.7,2.3,3.4"/>
<path class="st4" d="M426.5,522.8h-22.3c-1.5,0.2-2.6,1.5-2.5,3"/>
<path class="st4" d="M426.5,561.5h-21.8c-1.5-0.2-2.5-1.5-2.5-3"/>
<line class="st4" x1="355.8" y1="560.9" x2="355.8" y2="586.2"/>
<line class="st4" x1="361.3" y1="560.9" x2="361.3" y2="586.2"/>
<line class="st4" x1="366.7" y1="560.9" x2="366.7" y2="586.2"/>
<line class="st4" x1="372.2" y1="560.9" x2="372.2" y2="586.2"/>
<line class="st4" x1="377.8" y1="560.9" x2="377.8" y2="586.2"/>
<line class="st4" x1="383.3" y1="560.9" x2="383.3" y2="586.2"/>
<line class="st4" x1="388.2" y1="560.9" x2="388.2" y2="586.2"/>
<line class="st4" x1="393.7" y1="560.9" x2="393.7" y2="586.2"/>
<line class="st4" x1="398" y1="560.9" x2="398" y2="586.2"/>
<path class="st4" d="M402.9,560.4v25.8h-58l-0.2-24.3c0.1-1.6,0.9-3,2.3-3.8"/>
<line class="st4" x1="401.9" y1="555.5" x2="426.5" y2="555.5"/>
<line class="st4" x1="401.9" y1="550.1" x2="426.5" y2="550.1"/>
<line class="st4" x1="401.9" y1="544.6" x2="426.5" y2="544.6"/>
<line class="st4" x1="401.9" y1="538.9" x2="426.5" y2="538.9"/>
<line class="st4" x1="401.9" y1="533.5" x2="426.5" y2="533.5"/>
<line class="st4" x1="401.9" y1="528.6" x2="426.5" y2="528.6"/>
<circle class="st1" cx="442.4" cy="616.1" r="3.1"/>
<circle class="st1" cx="490.1" cy="616.1" r="3.1"/>
<circle class="st1" cx="518.1" cy="616.1" r="3.1"/>
<circle class="st1" cx="442.4" cy="721.3" r="3.1"/>
<circle class="st1" cx="490.1" cy="721.3" r="3.1"/>
<circle class="st1" cx="518.1" cy="721.3" r="3.1"/>
<rect x="434" y="608.1" class="st1" width="15.5" height="6.3"/>
<rect x="482.1" y="608.1" class="st1" width="24.9" height="6.3"/>
<polygon class="st1" points="515.7,33.3 513.9,33.3 513.9,25.4 522.1,25.4 522.1,27.9 538.8,27.9 538.8,33.4 529.8,33.4 529.8,41.8 
	523.7,41.8 523.7,48.9 515.8,48.9 "/>
<polygon class="st1" points="523.6,81.2 523.6,88.7 529,88.7 529,97 538.2,97 538.2,103.5 521,103.5 518.1,111 514.2,109.1 
	515.4,105.2 513.8,105.3 513.8,96.8 516.7,96.8 516.7,81.2 "/>
<polygon class="st1" points="601.6,25.4 597.3,25.4 597.3,27.9 572.2,27.9 572.1,33.7 581.6,33.7 581.6,42.3 585.6,42.3 585.6,48.2 
	595.1,48.2 595.1,81.4 585.6,81.4 585.6,88.7 581.4,88.7 581.4,97.4 573.2,97.4 573.2,103.9 601.6,103.9 "/>
<line class="st2" x1="495.1" y1="158.5" x2="495.1" y2="127.9"/>
<line class="st2" x1="495.1" y1="203.4" x2="495.1" y2="171.6"/>
<line class="st2" x1="509.9" y1="333.3" x2="509.9" y2="298.4"/>
<line class="st2" x1="509.9" y1="400.5" x2="509.9" y2="368.7"/>
<line class="st2" x1="509.9" y1="478.1" x2="509.9" y2="446.3"/>
<line class="st2" x1="495.1" y1="248.6" x2="495.1" y2="216.8"/>
<line class="st2" x1="366.7" y1="373.3" x2="366.7" y2="355.2"/>
<line class="st2" x1="366.7" y1="425.9" x2="366.7" y2="404.7"/>
<circle class="st4" cx="533.9" cy="23.6" r="2.3"/>
<circle class="st4" cx="554.3" cy="65.7" r="4.1"/>
<path class="st4" d="M535.3,79.6c-7.6-10.5-5.3-25.3,5.2-32.9c10.5-7.6,25.3-5.3,32.9,5.2c6,8.3,6,19.4,0,27.7"/>
<circle class="st4" cx="533.9" cy="23.6" r="3.6"/>
<circle class="st4" cx="576.5" cy="23.6" r="2.3"/>
<circle class="st4" cx="576.5" cy="23.6" r="3.6"/>
<path class="st2" d="M580.7,28.2v-22h-7.9c0,0-9-4.7-17.3-4.7c-9.3,0-18.3,4.9-18.3,4.9h-7.5v17.8H512v14.9h-12.2v51.5h17"/>
<path class="st2" d="M538.1,29.2v-19c5.2-2.6,10.9-4.1,16.7-4.3c8.9,0,17.4,4.6,17.4,4.6v18.6"/>
<line class="st2" x1="519.6" y1="47.4" x2="519.6" y2="81.7"/>
<line class="st2" x1="538.8" y1="29.2" x2="573.7" y2="29.2"/>
<line class="st2" x1="502.3" y1="120.4" x2="516.7" y2="110"/>
<polyline class="st2" points="515.8,48.2 504.9,48.2 504.9,81.7 516.7,81.7 "/>
<circle class="st1" cx="514.2" cy="87.4" r="3.2"/>
<circle class="st1" cx="514.2" cy="44" r="3.2"/>
<circle class="st1" cx="490.6" cy="164.7" r="3.2"/>
<circle class="st1" cx="491.5" cy="118.6" r="3.2"/>
<polygon class="st1" points="492.5,118.6 502.1,118.6 503.6,121.8 500.3,122.3 500.3,124.1 497.6,124.1 497.6,128.3 492.5,128.3 "/>
<path class="st2" d="M492.5,157.9"/>
<polygon class="st1" points="492.5,157.9 497.6,157.9 497.6,161.7 500.4,161.7 500.4,169.3 497.6,169.3 497.6,172.4 492.5,172.4 "/>
<circle class="st1" cx="490.6" cy="210.2" r="3.2"/>
<circle class="st1" cx="490.6" cy="254" r="3.2"/>
<circle class="st1" cx="351.3" cy="233.3" r="3.1"/>
<circle class="st1" cx="351.3" cy="278.9" r="3.1"/>
<polygon class="st1" points="492.5,203.4 497.6,203.4 497.6,207.2 500.4,207.2 500.4,214.7 497.6,214.7 497.6,217.8 492.5,217.8 "/>
<rect x="491.9" y="247.3" class="st1" width="5.9" height="6.2"/>
<path class="st5" d="M495.9,251.6c0,0,12.8,2.2,13,13.9"/>
<polyline class="st6" points="537.2,269 510.8,269 510.8,299.1 "/>
<line class="st6" x1="510.8" y1="332.2" x2="510.8" y2="368.7"/>
<line class="st6" x1="366.7" y1="371.7" x2="366.7" y2="405.9"/>
<line class="st6" x1="366.7" y1="425.9" x2="366.7" y2="432.6"/>
<line class="st6" x1="510.8" y1="399" x2="510.8" y2="446.4"/>
<line class="st6" x1="510.8" y1="350.4" x2="535" y2="350.4"/>
<polyline class="st6" points="452.3,339.4 366.7,339.4 366.7,355.2 "/>
<line class="st6" x1="561.2" y1="350.4" x2="594" y2="350.4"/>
<line class="st6" x1="567.4" y1="269" x2="594" y2="269"/>
<line class="st6" x1="510.8" y1="430.1" x2="535" y2="430.1"/>
<line class="st6" x1="560.5" y1="430.1" x2="594" y2="430.1"/>
<line class="st6" x1="597.7" y1="100.7" x2="597.7" y2="733.6"/>
<line class="st6" x1="452.6" y1="174.5" x2="452.6" y2="432.6"/>
<line class="st4" x1="554.3" y1="42.2" x2="554.3" y2="61.7"/>
<line class="st4" x1="561.6" y1="43.3" x2="555.6" y2="61.9"/>
<line class="st4" x1="568.2" y1="46.7" x2="556.7" y2="62.5"/>
<line class="st4" x1="573.4" y1="51.9" x2="557.6" y2="63.4"/>
<line class="st4" x1="576.7" y1="58.5" x2="558.2" y2="64.5"/>
<line class="st4" x1="577.9" y1="65.7" x2="558.4" y2="65.7"/>
<line class="st4" x1="576.7" y1="73" x2="558.2" y2="67"/>
<line class="st4" x1="573.4" y1="79.6" x2="557.6" y2="68.1"/>
<line class="st4" x1="547" y1="43.3" x2="553.1" y2="61.9"/>
<line class="st4" x1="540.5" y1="46.7" x2="551.9" y2="62.5"/>
<line class="st4" x1="535.2" y1="51.9" x2="551" y2="63.4"/>
<line class="st4" x1="531.9" y1="58.5" x2="550.4" y2="64.5"/>
<line class="st4" x1="530.7" y1="65.8" x2="550.3" y2="65.8"/>
<line class="st4" x1="531.9" y1="73" x2="550.5" y2="67"/>
<line class="st4" x1="535.3" y1="79.6" x2="551" y2="68.1"/>
<path class="st4" d="M545.4,76.5c0,0-5.2-2.3-4.9-13.2s13.2-11.8,13.9-11.8c5.5-0.2,13.9,4.1,13.8,12.1c0,10.3-6.5,13.5-6.5,13.5
	s-6.9,4.3-7,8.5c-0.1,5.5,0,10.4,0,10.4"/>
<polyline class="st6" points="402.7,492.5 430,492.5 430,589.5 400.7,589.5 "/>
<path class="st1" d="M347.4,488.9h-4.7c0,0,0.9-11.3-4.9-15s-9.1-3.9-9.1-3.9v-6.8h13.8v6.4h4.9V488.9z"/>
<path class="st1" d="M253.9,488.9h4.7c0,0-0.9-11.3,4.9-15s9.1-3.9,9.1-3.9v-6.8h-13.8v6.4h-4.9V488.9z"/>
<line class="st2" x1="272.4" y1="467.7" x2="328.7" y2="467.7"/>
<line class="st6" x1="510.8" y1="476.8" x2="510.8" y2="501.3"/>
<polygon class="st1" points="436.9,487.3 442.2,490.5 437.4,497.2 430.4,497.2 "/>
<polygon class="st1" points="502.9,487.3 497.5,490.5 503.5,498.2 511.8,498.2 "/>
<polygon class="st1" points="451.5,465.9 458.6,465.9 458.6,471.8 455.6,471.8 454.6,473.6 449.3,470.3 "/>
<polygon class="st1" points="487.7,465.9 480.6,465.9 480.6,471.8 483.6,471.8 484.6,473.6 489.9,470.3 "/>
<line class="st2" x1="369.2" y1="492.5" x2="404.4" y2="492.5"/>
<line class="st2" x1="197.4" y1="492.5" x2="232.6" y2="492.5"/>
<line class="st2" x1="108.5" y1="605.7" x2="132.5" y2="605.7"/>
<line class="st2" x1="191.1" y1="605.7" x2="215.1" y2="605.7"/>
<line class="st2" x1="283" y1="492.5" x2="318.2" y2="492.5"/>
<line class="st2" x1="457.7" y1="468.7" x2="481.5" y2="468.7"/>
<line class="st2" x1="369.2" y1="589.5" x2="404.4" y2="589.5"/>
<line class="st2" x1="439.1" y1="489" x2="452.1" y2="471.4"/>
<line class="st2" x1="487.2" y1="471.4" x2="500.8" y2="489.4"/>
<line class="st6" x1="370.1" y1="492.5" x2="317.3" y2="492.5"/>
<line class="st6" x1="284.4" y1="492.5" x2="231.6" y2="492.5"/>
<line class="st7" x1="278.5" y1="588.2" x2="258" y2="588.2"/>
<line class="st6" x1="198.2" y1="492.7" x2="165.4" y2="492.7"/>
<line class="st7" x1="369.5" y1="589.5" x2="320.6" y2="589.5"/>
<rect x="264" y="494.9" class="st1" width="7.6" height="4.4"/>
<rect x="325.9" y="494.9" class="st1" width="7.6" height="4.4"/>
<rect x="337.1" y="494.9" class="st1" width="7.6" height="4.4"/>
<rect x="264" y="584.1" class="st1" width="7.6" height="4.4"/>
<rect x="325.9" y="584.1" class="st1" width="7.6" height="4.4"/>
<rect x="337.1" y="584.1" class="st1" width="7.6" height="4.4"/>
<rect x="264" y="590.8" class="st1" width="7.6" height="4.4"/>
<rect x="325.9" y="590.8" class="st1" width="7.6" height="4.4"/>
<rect x="337.1" y="590.8" class="st1" width="7.6" height="4.4"/>
<rect x="264" y="623.6" class="st1" width="7.6" height="4.4"/>
<rect x="325.9" y="623.6" class="st1" width="7.6" height="4.4"/>
<rect x="337.1" y="623.6" class="st1" width="7.6" height="4.4"/>
<rect x="334.6" y="536.4" class="st4" width="9.5" height="9.2"/>
<circle class="st4" cx="339.3" cy="541" r="3.1"/>
<rect x="324" y="536.4" class="st4" width="9.5" height="9.2"/>
<circle class="st4" cx="328.7" cy="541" r="3.1"/>
<rect x="263.1" y="536.4" class="st4" width="9.5" height="9.2"/>
<circle class="st4" cx="267.8" cy="541" r="3.1"/>
<polyline class="st8" points="5.9,97.5 5,728.6 40.5,728.6 "/>
<polygon class="st1" points="1.6,26.2 1.6,104.5 34.7,104.5 34.7,98.5 29.9,98.5 29.9,95.7 21.9,95.7 21.9,87.5 17.1,87.5 
	17.1,81.7 8,81.7 8,46.3 17,46.3 17,40.2 21.7,40.2 21.7,31.3 34.7,31.3 34.7,26.2 "/>
<polygon class="st1" points="81.6,80.9 88.4,80.9 88.4,97 90.4,97 90.4,105.7 82.3,105.7 82.3,103.6 65.1,103.6 65.1,99.1 
	67.7,99.1 67.7,96.4 75.5,96.4 75.5,88.2 81.5,88.2 "/>
<polygon class="st1" points="90.2,24.8 81.7,24.8 81.7,26.2 66.1,26.2 66.1,31.3 76,31.3 76,40.2 81.8,40.2 81.8,47.8 88.3,47.8 
	88.3,33.2 90.2,33.2 "/>
<circle class="st4" cx="71.2" cy="22" r="2.8"/>
<circle class="st1" cx="88.4" cy="42.3" r="2.8"/>
<circle class="st1" cx="88.4" cy="86.8" r="2.8"/>
<circle class="st4" cx="71.2" cy="22" r="4.4"/>
<circle class="st4" cx="29.2" cy="22" r="2.8"/>
<circle class="st4" cx="29.2" cy="22" r="4.4"/>
<path class="st2" d="M87.2,89.9h18v-8.6h-2.2V47.4h2.2v-8.5H91.9V23.8H77V4.9H66.8c0,0-8.4-4.4-16.1-4.4C42,0.5,33.6,5,33.6,5h-9.9
	v17.9h-22v3.3"/>
<polyline class="st2" points="88.3,47.4 98.9,47.4 98.9,81.3 88.4,81.3 "/>
<line class="st2" x1="33.6" y1="28.3" x2="67.7" y2="28.3"/>
<line class="st2" x1="85.1" y1="47.4" x2="85.1" y2="81.3"/>
<path class="st2" d="M34.5,26.4V8.7c4.8-2.4,10.1-3.8,15.6-4C58.3,4.7,66.3,9,66.3,9v17.4"/>
<line class="st9" x1="86.5" y1="104.5" x2="86.5" y2="269"/>
<circle class="st1" cx="91.1" cy="120.3" r="3"/>
<circle class="st1" cx="91.1" cy="166" r="3"/>
<circle class="st1" cx="91.1" cy="212.3" r="3"/>
<line class="st8" x1="90.3" y1="263.8" x2="90.3" y2="285"/>
<line class="st8" x1="90.3" y1="308.7" x2="90.3" y2="334.6"/>
<line class="st8" x1="90.3" y1="360.1" x2="90.3" y2="385.1"/>
<line class="st8" x1="90.3" y1="404.5" x2="90.3" y2="446.2"/>
<line class="st9" x1="8.5" y1="267" x2="86.5" y2="267"/>
<line class="st9" x1="8.5" y1="312" x2="64.6" y2="312"/>
<line class="st9" x1="27.9" y1="414.8" x2="90.3" y2="414.8"/>
<line class="st2" x1="90.3" y1="283.8" x2="90.3" y2="312"/>
<line class="st2" x1="90.3" y1="333.9" x2="90.3" y2="360.9"/>
<line class="st2" x1="90.3" y1="384.1" x2="90.3" y2="409.6"/>
<line class="st2" x1="90.3" y1="444.4" x2="90.3" y2="474.1"/>
<polygon class="st1" points="368.8,114.5 368.8,92.8 456.4,92.8 456.4,177.2 438.6,177.2 438.6,179.1 432.2,179.1 432.2,170.6 
	440.1,170.6 440.1,163 443.9,163 443.9,154.6 450.4,154.6 450.4,114 444,114 444,106.9 439.6,106.9 439.6,101.8 383.1,101.8 
	383.1,106.1 378.7,106.1 378.7,114.6 "/>
<path class="st1" d="M368.8,153.8h9.1v8.7h5.6v6.6h7.6v10h-7.4v-2.3h-6.6c0,0-6.3,15.8-20.4,16.1v2.3h-7.9v-3.1l-1.6-2l4.6-4.8
	l2.5,2.1c0,0,9.5,1.5,17.1-10.2c-0.9-0.5-1.7-1.1-2.5-1.7L368.8,153.8z"/>
<line class="st2" x1="374.5" y1="114.5" x2="374.5" y2="153.8"/>
<circle class="st1" cx="410" cy="135.5" r="4.1"/>
<path class="st4" d="M390.9,149.4c-7.6-10.5-5.3-25.3,5.2-32.9c10.5-7.6,25.3-5.3,32.9,5.2c6,8.3,6,19.4,0,27.7"/>
<line class="st4" x1="410" y1="112" x2="410" y2="131.5"/>
<line class="st4" x1="417.3" y1="113.1" x2="411.2" y2="131.7"/>
<line class="st4" x1="423.8" y1="116.5" x2="412.4" y2="132.2"/>
<line class="st4" x1="429" y1="121.7" x2="413.3" y2="133.1"/>
<line class="st4" x1="432.4" y1="128.2" x2="413.8" y2="134.3"/>
<line class="st4" x1="433.5" y1="135.5" x2="414" y2="135.5"/>
<line class="st4" x1="432.4" y1="142.8" x2="413.8" y2="136.8"/>
<line class="st4" x1="429" y1="149.4" x2="413.3" y2="137.9"/>
<line class="st4" x1="402.7" y1="113.1" x2="408.7" y2="131.7"/>
<line class="st4" x1="396.1" y1="116.5" x2="407.6" y2="132.2"/>
<line class="st4" x1="390.9" y1="121.7" x2="406.7" y2="133.1"/>
<line class="st4" x1="387.5" y1="128.3" x2="406.1" y2="134.3"/>
<line class="st4" x1="386.4" y1="135.5" x2="405.9" y2="135.5"/>
<line class="st4" x1="387.6" y1="142.8" x2="406.1" y2="136.8"/>
<line class="st4" x1="390.9" y1="149.4" x2="406.7" y2="137.9"/>
<path class="st4" d="M401,146.3c0,0-5.2-2.3-4.9-13.2s13.2-11.8,13.9-11.8c5.5-0.2,13.9,4.1,13.8,12.1c0,10.3-6.5,13.5-6.5,13.5
	s-6.9,4.3-7,8.5c-0.1,5.5,0,10.4,0,10.4"/>
<polyline class="st2" points="497.8,250.4 512.1,250.4 512.1,265.2 "/>
<polyline class="st10" points="353.2,320 367.5,320 367.5,336.3 "/>
<g>
	<line class="st2" x1="351.3" y1="194.3" x2="351.3" y2="195.3"/>
	<line class="st11" x1="351.3" y1="197.3" x2="351.3" y2="316.8"/>
	<line class="st2" x1="351.3" y1="317.8" x2="351.3" y2="318.8"/>
</g>
<path class="st12" d="M352.7,322c0,0,11.7,4.4,11.7,14.5"/>
<polygon class="st1" points="346.1,321.6 349.1,317.6 353.2,317.6 355.1,320 350.9,325.6 "/>
<line class="st5" x1="368.8" y1="380.3" x2="389.2" y2="380.3"/>
<line class="st5" x1="402.5" y1="380.3" x2="449.5" y2="380.3"/>
<polygon class="st1" points="82.5,476.2 88.4,476.2 88.4,474.1 91.9,474.1 91.9,490.3 94.9,485.3 100.2,489.6 95.1,496.6 
	92.5,496.6 92.5,503.9 87.9,504.4 87.9,502.9 81.3,496.3 81.3,494.4 82.7,494.4 "/>
<polygon class="st1" points="106.2,470.8 109.7,466.8 109.7,463.9 119,463.9 119,470.2 114.4,470.2 111.3,474.8 "/>
<polygon class="st1" points="151,470.8 147.5,466.8 147.5,463.9 138.1,463.9 138.1,470.2 142.8,470.2 145.9,474.8 "/>
<polygon class="st1" points="162.1,485.2 157.5,489.2 163.2,496.6 166,496.6 166,489.8 "/>
<line class="st2" x1="118.1" y1="467.1" x2="139.1" y2="467.1"/>
<line class="st2" x1="148.1" y1="471.3" x2="161.1" y2="488.2"/>
<line class="st2" x1="109.8" y1="471.3" x2="96.6" y2="489.2"/>
<polyline class="st7" points="108.7,605.7 79,605.7 79,594.7 "/>
<line class="st5" x1="38.6" y1="518.1" x2="38.6" y2="567.1"/>
<line class="st5" x1="38.6" y1="499.6" x2="38.6" y2="503.9"/>
<line class="st5" x1="27.1" y1="567.1" x2="47.2" y2="567.1"/>
<line class="st5" x1="70.7" y1="567.1" x2="80.7" y2="567.1"/>
<line class="st4" x1="39.8" y1="523.3" x2="77.3" y2="523.3"/>
<line class="st4" x1="39.8" y1="527.3" x2="77.3" y2="527.3"/>
<line class="st4" x1="39.8" y1="531.4" x2="77.3" y2="531.4"/>
<line class="st4" x1="39.8" y1="535.4" x2="77.3" y2="535.4"/>
<line class="st4" x1="39.8" y1="539.5" x2="77.3" y2="539.5"/>
<line class="st4" x1="39.8" y1="543.5" x2="77.3" y2="543.5"/>
<line class="st4" x1="39.8" y1="547.5" x2="77.3" y2="547.5"/>
<polyline class="st10" points="104.4,603.3 104.4,585 80.7,585 "/>
<polyline class="st7" points="79,587.6 79,505.3 70.6,497.6 66.3,497.6 "/>
<line class="st7" x1="47.2" y1="497.6" x2="28.4" y2="497.6"/>
<line class="st7" x1="131.8" y1="605.7" x2="192.1" y2="605.7"/>
<line class="st7" x1="131.8" y1="628.7" x2="192.1" y2="628.7"/>
<line class="st7" x1="214.7" y1="628.7" x2="287.3" y2="628.7"/>
<line class="st7" x1="310.1" y1="628.7" x2="374.3" y2="628.7"/>
<line class="st7" x1="396.1" y1="628.7" x2="430.4" y2="628.7"/>
<line class="st7" x1="55" y1="628.7" x2="109.2" y2="628.7"/>
<line class="st7" x1="8.4" y1="628.7" x2="32.5" y2="628.7"/>
<polyline class="st7" points="214.5,605.7 255.2,605.7 255.2,495.4 "/>
<line class="st7" x1="169.2" y1="492.7" x2="169.2" y2="503.8"/>
<line class="st7" x1="169.2" y1="519.8" x2="169.2" y2="604.9"/>
<rect x="258" y="537" class="st1" width="2.7" height="8"/>
<line class="st12" x1="31.2" y1="417.6" x2="31.2" y2="453.7"/>
<line class="st12" x1="31.2" y1="460.7" x2="31.2" y2="480.7"/>
<circle class="st1" cx="567.6" cy="721.1" r="2.7"/>
<circle class="st1" cx="567.6" cy="616.4" r="2.7"/>
<circle class="st1" cx="591.2" cy="641.1" r="2.7"/>
<circle class="st1" cx="591.2" cy="701.9" r="2.7"/>
<path class="st4" d="M582.1,615.8c-4,0-7.6,2.4-9.1,6.1c0.2,0,0.3,0,0.5,0c6.3,0,11.5,5,11.5,11.4c0,0.6,0,1.3-0.1,1.9
	c5.2-1.5,8.2-7,6.6-12.3C590.3,618.7,586.4,615.8,582.1,615.8z"/>
<path class="st4" d="M592.1,713c0-4-2.4-7.6-6.1-9.1c0,0.2,0,0.3,0,0.5c0,6.3-5,11.5-11.4,11.5c-0.6,0-1.3,0-1.9-0.1
	c1.5,5.2,7,8.2,12.3,6.6C589.2,721.2,592.1,717.4,592.1,713z"/>
<line class="st8" x1="595.9" y1="728.6" x2="554" y2="728.6"/>
<line class="st8" x1="523.8" y1="728.6" x2="482.2" y2="728.6"/>
<line class="st8" x1="449.6" y1="728.6" x2="408.1" y2="728.6"/>
<line class="st8" x1="189.5" y1="728.6" x2="145.7" y2="728.6"/>
<line class="st8" x1="245.9" y1="728.6" x2="219.3" y2="728.6"/>
<line class="st8" x1="114.5" y1="728.6" x2="72.6" y2="728.6"/>
<polygon class="st1" points="244.1,723.7 244.1,738.5 259.2,738.5 259.2,732.1 266.4,732.1 266.4,735.9 273.4,735.9 273.4,732.1 
	278.2,732.1 278.2,723.7 "/>
<polygon class="st1" points="354.7,723.7 354.7,738.5 339.6,738.5 339.6,732.1 332.4,732.1 332.4,735.9 325.4,735.9 325.4,732.1 
	320.6,732.1 320.6,723.7 "/>
<line class="st5" x1="347.4" y1="628.6" x2="347.4" y2="660.5"/>
<line class="st5" x1="159.3" y1="628.6" x2="159.3" y2="660.5"/>
<line class="st5" x1="159.3" y1="688.4" x2="159.3" y2="723.8"/>
<line class="st5" x1="248.7" y1="628.6" x2="248.7" y2="660.5"/>
<line class="st5" x1="248.7" y1="688.4" x2="248.7" y2="725.3"/>
<line class="st5" x1="347.4" y1="690.1" x2="347.4" y2="726.2"/>
<line class="st6" x1="559" y1="520.4" x2="596.2" y2="520.4"/>
<line class="st6" x1="555.2" y1="610" x2="596.6" y2="610"/>
<path class="st1" d="M506.8,526.3h6.6l17.9-10.8c0,0,5.7,1.8,3.8,6.6c-0.8,2.1-4.2,1.9-6.3,1.8c-2.7-0.2-5.5,0.1-8.2,0.8
	c-2.3,0.8-6.6,2.9-6.8,5.7c-0.1,2.8,0,66.3,0,68.4c0,2.1,5.4,8.6,8.9,8.7c3.4,0.1,5.3,0,5.3,0v6.4h-21.3V526.3z"/>
<line class="st6" x1="430" y1="608.1" x2="430" y2="663.7"/>
<line class="st6" x1="430" y1="692.8" x2="430" y2="725.3"/>
<path class="st13" d="M526.3,538.9h22.3c1.5,0,2.8,1.3,2.8,2.8v0v49.5c0,1.5-1.3,2.8-2.8,2.8l0,0h-22.3c-1.5,0-2.8-1.3-2.8-2.8v0
	v-49.5C523.5,540.2,524.8,538.9,526.3,538.9z"/>
<line class="st10" x1="561.6" y1="524.3" x2="561.6" y2="585"/>
<path class="st4" d="M555.2,595.3c0,0,15.6,3.3,15.6-10.3s0.1-44.6,0-45.1c0.6-3.9,4-6.8,7.9-6.7c6.5,0,7.3,6.3,7.3,7.3V594"/>
<path class="st4" d="M578.3,541c0,0-0.8,47.5-0.8,50.2c0,2.7-1.3,14.9-22.4,14.9"/>
<line class="st4" x1="561.6" y1="545" x2="593.9" y2="545"/>
<line class="st4" x1="561.6" y1="549.9" x2="593.9" y2="549.9"/>
<line class="st4" x1="561.6" y1="554.7" x2="593.9" y2="554.7"/>
<line class="st4" x1="561.6" y1="559.5" x2="593.9" y2="559.5"/>
<line class="st4" x1="561.6" y1="564.4" x2="593.9" y2="564.4"/>
<line class="st4" x1="561.6" y1="569.2" x2="593.9" y2="569.2"/>
<line class="st4" x1="561.6" y1="574" x2="593.9" y2="574"/>
<circle class="st4" cx="579.9" cy="538.4" r="2.6"/>
<path class="st4" d="M579.9,524.9c7.4,0,13.5,6,13.4,13.5c0,7.4-6,13.4-13.5,13.4c-4.4,0-8.5-2.1-11-5.7"/>
<line class="st4" x1="562.2" y1="576.9" x2="577.8" y2="579.8"/>
<line class="st4" x1="562.2" y1="580.4" x2="577.6" y2="588.8"/>
<line class="st4" x1="562.2" y1="584" x2="576.7" y2="595.6"/>
<polyline class="st4" points="572.3,601.6 561.6,584.6 565.7,604.8 "/>
<line class="st4" x1="580.4" y1="535.8" x2="582.5" y2="525.2"/>
<line class="st4" x1="581.4" y1="536.2" x2="587.7" y2="527.4"/>
<line class="st4" x1="582.2" y1="537" x2="591.5" y2="531.5"/>
<line class="st4" x1="582.6" y1="538" x2="593.3" y2="536.8"/>
<line class="st4" x1="582.5" y1="539.1" x2="592.8" y2="542.3"/>
<line class="st4" x1="581.9" y1="540.1" x2="590.1" y2="547.2"/>
<line class="st4" x1="581.1" y1="540.8" x2="585.6" y2="550.6"/>
<line class="st4" x1="580" y1="541" x2="580.2" y2="551.8"/>
<line class="st4" x1="578.9" y1="540.8" x2="574.7" y2="550.7"/>
<line class="st4" x1="578" y1="540.2" x2="570.1" y2="547.5"/>
</svg>
