<svg id="Ebene_1" data-name="Ebene 1" xmlns="http://www.w3.org/2000/svg" viewBox="0 0 601.7159 754.3203">
  <defs>
    <style>
      .cls-1 {
        fill: #fff;
      }

      .cls-1, .cls-10, .cls-11, .cls-12, .cls-13, .cls-3, .cls-4, .cls-5, .cls-6, .cls-7, .cls-8, .cls-9 {
        stroke: #1d1d1b;
      }

      .cls-1, .cls-10, .cls-11, .cls-12, .cls-13, .cls-14, .cls-3, .cls-4, .cls-5, .cls-6, .cls-7, .cls-8, .cls-9 {
        stroke-miterlimit: 10;
      }

      .cls-2 {
        fill: #1d1d1b;
      }

      .cls-10, .cls-11, .cls-12, .cls-13, .cls-14, .cls-3, .cls-4, .cls-5, .cls-6, .cls-7, .cls-8, .cls-9 {
        fill: none;
      }

      .cls-4 {
        stroke-width: 1.5px;
      }

      .cls-5 {
        stroke-width: 0.5px;
      }

      .cls-6 {
        stroke-width: 4px;
      }

      .cls-7 {
        stroke-width: 8px;
      }

      .cls-8 {
        stroke-width: 6px;
      }

      .cls-9 {
        stroke-width: 10px;
      }

      .cls-10 {
        stroke-width: 7px;
      }

      .cls-11 {
        stroke-width: 2px;
      }

      .cls-12 {
        stroke-dasharray: 2.0089 2.0089;
      }

      .cls-13 {
        stroke-width: 3px;
      }

      .cls-14 {
        stroke: #b1b1b1;
      }
    </style>
  </defs>
  <title>Plan-1</title>
  <rect class="cls-1" x="323.9597" y="73.8833" width="149.2046" height="358.7851"/>
  <g>
    <path class="cls-2" d="M356.1292,122.8812h-5.1544v4.799h5.7666v1.4419h-7.505V115.8106h7.209v1.4418h-5.4706v4.2067h5.1544Z" transform="translate(-14.3682 -21.9648)"/>
    <path class="cls-2" d="M369.1231,128.53a12.0438,12.0438,0,0,1-4.1082.7308,6.2523,6.2523,0,0,1-6.834-6.7153c0-3.97,2.7459-6.8731,7.2089-6.8731a8.3509,8.3509,0,0,1,3.3379.6122l-.4348,1.4025a6.6121,6.6121,0,0,0-2.9426-.5727,4.9786,4.9786,0,0,0-5.352,5.3525c0,3.3769,2.0141,5.3718,5.1351,5.3718a5.609,5.609,0,0,0,2.2908-.3553v-3.97h-2.6861v-1.3826h4.385Z" transform="translate(-14.3682 -21.9648)"/>
  </g>
  <line class="cls-3" x1="278.1826" y1="725.4045" x2="320.615" y2="725.4045"/>
  <line class="cls-3" x1="354.0336" y1="728.699" x2="409.476" y2="728.699"/>
  <line class="cls-3" x1="187.3937" y1="728.699" x2="220.5689" y2="728.699"/>
  <line class="cls-3" x1="113.4661" y1="728.699" x2="146.6413" y2="728.699"/>
  <line class="cls-3" x1="40.4574" y1="728.699" x2="73.6326" y2="728.699"/>
  <line class="cls-3" x1="448.2365" y1="728.699" x2="484.4946" y2="728.699"/>
  <line class="cls-3" x1="523.7747" y1="728.699" x2="555.3625" y2="728.699"/>
  <path class="cls-4" d="M368.4019,759.5446v9.4661H342.9641s.7873,6.5244-29.2033,6.5244-32.75-6.5244-32.75-6.5244h-21.89v-9.4661" transform="translate(-14.3682 -21.9648)"/>
  <path class="cls-5" d="M353.403,567.6921c0,11.1929,13.1955,14.8625,13.1955,14.8625h45.9574s3.59.3143,3.5621-2.62-.0029-30.6331,0-31.1624c.0053-.91-.338-3.43-2.96-3.4122-3.079.0193-44.7354,0-44.7354,0s-15.02.9092-15.02,12.93" transform="translate(-14.3682 -21.9648)"/>
  <path class="cls-5" d="M364.5159,518.2521l-.2015,24.127a2.9923,2.9923,0,0,0,1.8367,3.1306" transform="translate(-14.3682 -21.9648)"/>
  <path class="cls-5" d="M364.5159,608.2233l-.2015-22.3318a3.5006,3.5006,0,0,1,1.8367-3.5172" transform="translate(-14.3682 -21.9648)"/>
  <line class="cls-5" x1="355.7773" y1="496.2873" x2="355.7773" y2="522.9558"/>
  <line class="cls-5" x1="361.2634" y1="496.2873" x2="361.2634" y2="522.9558"/>
  <line class="cls-5" x1="366.7012" y1="496.2873" x2="366.7012" y2="522.9558"/>
  <line class="cls-5" x1="372.1872" y1="496.2873" x2="372.1872" y2="522.9558"/>
  <line class="cls-5" x1="377.8189" y1="496.2873" x2="377.8189" y2="522.9558"/>
  <line class="cls-5" x1="383.305" y1="496.2873" x2="383.305" y2="522.9558"/>
  <line class="cls-5" x1="388.2144" y1="496.2873" x2="388.2144" y2="522.9558"/>
  <line class="cls-5" x1="393.7005" y1="496.2873" x2="393.7005" y2="522.9558"/>
  <line class="cls-5" x1="397.9833" y1="496.2873" x2="397.9833" y2="522.9558"/>
  <path class="cls-5" d="M413.9886,545.0778A3.1254,3.1254,0,0,0,417.02,542.34V518.2521H359.23l-.2015,25.5135a3.9732,3.9732,0,0,0,2.2716,3.37" transform="translate(-14.3682 -21.9648)"/>
  <path class="cls-5" d="M440.8221,544.8377H418.4946a3.0067,3.0067,0,0,0-2.54,3.0313" transform="translate(-14.3682 -21.9648)"/>
  <path class="cls-5" d="M440.89,583.4936H419.1021a2.9725,2.9725,0,0,1-2.4774-3.0313" transform="translate(-14.3682 -21.9648)"/>
  <line class="cls-5" x1="355.7773" y1="560.9956" x2="355.7773" y2="586.2585"/>
  <line class="cls-5" x1="361.2634" y1="560.9956" x2="361.2634" y2="586.2585"/>
  <line class="cls-5" x1="366.7012" y1="560.9956" x2="366.7012" y2="586.2585"/>
  <line class="cls-5" x1="372.1872" y1="560.9956" x2="372.1872" y2="586.2585"/>
  <line class="cls-5" x1="377.8189" y1="560.9956" x2="377.8189" y2="586.2585"/>
  <line class="cls-5" x1="383.305" y1="560.9956" x2="383.305" y2="586.2585"/>
  <line class="cls-5" x1="388.2144" y1="560.9956" x2="388.2144" y2="586.2585"/>
  <line class="cls-5" x1="393.7005" y1="560.9956" x2="393.7005" y2="586.2585"/>
  <line class="cls-5" x1="397.9833" y1="560.9956" x2="397.9833" y2="586.2585"/>
  <path class="cls-5" d="M417.234,582.3742v25.8491H359.23l-.2015-24.34a4.6908,4.6908,0,0,1,2.2716-3.821" transform="translate(-14.3682 -21.9648)"/>
  <line class="cls-5" x1="401.9151" y1="555.554" x2="426.4654" y2="555.554"/>
  <line class="cls-5" x1="401.9151" y1="550.1161" x2="426.4654" y2="550.1161"/>
  <line class="cls-5" x1="401.9151" y1="544.63" x2="426.4654" y2="544.63"/>
  <line class="cls-5" x1="401.9151" y1="538.9984" x2="426.4654" y2="538.9984"/>
  <line class="cls-5" x1="401.9151" y1="533.5124" x2="426.4654" y2="533.5124"/>
  <line class="cls-5" x1="401.9151" y1="528.6029" x2="426.4654" y2="528.6029"/>
  <circle class="cls-2" cx="442.4178" cy="616.1473" r="3.081"/>
  <circle class="cls-2" cx="490.0595" cy="616.1473" r="3.0808"/>
  <circle class="cls-2" cx="518.0712" cy="616.1473" r="3.0808"/>
  <circle class="cls-2" cx="442.4178" cy="721.3772" r="3.081"/>
  <circle class="cls-2" cx="490.0595" cy="721.3772" r="3.0808"/>
  <circle class="cls-2" cx="518.0712" cy="721.3772" r="3.0808"/>
  <rect class="cls-2" x="434.0012" y="608.1323" width="15.536" height="6.2641"/>
  <rect class="cls-2" x="482.0523" y="608.1323" width="24.9172" height="6.2641"/>
  <polygon class="cls-2" points="515.707 33.254 513.923 33.254 513.923 25.415 522.137 25.415 522.137 27.95 538.813 27.95 538.813 33.384 529.791 33.384 529.791 41.796 523.736 41.796 523.736 48.892 515.772 48.892 515.707 33.254"/>
  <polygon class="cls-2" points="523.611 81.198 523.611 88.733 529.009 88.733 529.009 97.015 538.231 97.015 538.231 103.486 521.011 103.486 518.054 111.005 514.207 109.148 515.39 105.199 513.809 105.267 513.809 96.816 516.739 96.816 516.739 81.198 523.611 81.198"/>
  <polygon class="cls-2" points="601.632 25.414 597.267 25.414 597.267 27.874 572.209 27.874 572.14 33.719 581.556 33.689 581.556 42.35 585.62 42.35 585.62 48.223 595.053 48.223 595.053 81.445 585.551 81.445 585.551 88.686 581.417 88.686 581.417 97.401 573.247 97.401 573.247 103.872 601.632 103.872 601.632 25.414"/>
  <line class="cls-3" x1="495.12" y1="158.5536" x2="495.12" y2="127.865"/>
  <line class="cls-3" x1="495.12" y1="203.4138" x2="495.12" y2="171.6473"/>
  <line class="cls-3" x1="509.93" y1="333.3093" x2="509.93" y2="298.4309"/>
  <line class="cls-3" x1="509.93" y1="400.4926" x2="509.93" y2="368.7246"/>
  <line class="cls-3" x1="509.93" y1="478.1004" x2="509.93" y2="446.3324"/>
  <line class="cls-3" x1="495.12" y1="248.6323" x2="495.12" y2="216.8657"/>
  <line class="cls-3" x1="366.7012" y1="373.3324" x2="366.7012" y2="355.2814"/>
  <line class="cls-3" x1="366.7012" y1="425.982" x2="366.7012" y2="404.7282"/>
  <circle class="cls-5" cx="533.8967" cy="23.6506" r="2.2899"/>
  <circle class="cls-5" cx="554.3197" cy="65.7538" r="4.0661"/>
  <path class="cls-5" d="M549.6318,101.5724a23.5558,23.5558,0,1,1,38.1189-.012" transform="translate(-14.3682 -21.9648)"/>
  <circle class="cls-5" cx="533.8973" cy="23.6507" r="3.6137"/>
  <circle class="cls-5" cx="576.4674" cy="23.6506" r="2.2898"/>
  <circle class="cls-5" cx="576.4677" cy="23.6507" r="3.6139"/>
  <path class="cls-3" d="M595.021,50.21V28.1664h-7.94S578.0542,23.469,569.8,23.469c-9.292,0-18.2713,4.8714-18.2713,4.8714h-7.5445V46.1874H526.3706V61.099H514.1475v51.5029h16.96" transform="translate(-14.3682 -21.9648)"/>
  <path class="cls-3" d="M552.5031,51.2025V32.2447a39.7673,39.7673,0,0,1,16.6679-4.2659c8.8832-.0438,17.3717,4.6184,17.3717,4.6184V51.2025" transform="translate(-14.3682 -21.9648)"/>
  <line class="cls-3" x1="519.5561" y1="47.3989" x2="519.5561" y2="81.7099"/>
  <line class="cls-3" x1="538.8132" y1="29.1986" x2="573.6544" y2="29.1986"/>
  <line class="cls-3" x1="502.3184" y1="120.4608" x2="516.7389" y2="109.9953"/>
  <polyline class="cls-3" points="515.772 48.224 504.939 48.224 504.939 81.71 516.739 81.71"/>
  <circle class="cls-2" cx="514.2484" cy="87.4407" r="3.1965"/>
  <circle class="cls-2" cx="514.2484" cy="43.9997" r="3.1965"/>
  <circle class="cls-2" cx="490.5533" cy="164.7573" r="3.1965"/>
  <circle class="cls-2" cx="491.5406" cy="118.6504" r="3.1965"/>
  <polygon class="cls-2" points="492.528 118.651 502.072 118.651 503.635 121.777 500.303 122.311 500.303 124.138 497.588 124.138 497.588 128.277 492.528 128.277 492.528 118.651"/>
  <path class="cls-3" d="M506.8961,179.9014" transform="translate(-14.3682 -21.9648)"/>
  <polygon class="cls-2" points="492.528 157.937 497.629 157.937 497.629 161.701 500.406 161.701 500.406 169.29 497.567 169.29 497.567 172.376 492.528 172.376 492.528 157.937"/>
  <circle class="cls-2" cx="490.5533" cy="210.2346" r="3.1965"/>
  <circle class="cls-2" cx="490.5533" cy="254.0459" r="3.1965"/>
  <circle class="cls-2" cx="351.3446" cy="233.3122" r="3.1213"/>
  <circle class="cls-2" cx="351.3446" cy="278.8927" r="3.1213"/>
  <polygon class="cls-2" points="492.528 203.414 497.629 203.414 497.629 207.178 500.406 207.178 500.406 214.768 497.567 214.768 497.567 217.853 492.528 217.853 492.528 203.414"/>
  <rect class="cls-2" x="491.8901" y="247.3485" width="5.9238" height="6.2323"/>
  <path class="cls-6" d="M510.248,273.5855s12.7731,2.207,12.9583,13.9311" transform="translate(-14.3682 -21.9648)"/>
  <polyline class="cls-7" points="537.244 269.007 510.839 269.007 510.839 299.12"/>
  <line class="cls-7" x1="510.8387" y1="332.1942" x2="510.8387" y2="368.7246"/>
  <line class="cls-7" x1="366.7012" y1="371.6865" x2="366.7012" y2="405.9131"/>
  <line class="cls-7" x1="366.7012" y1="425.982" x2="366.7012" y2="432.6684"/>
  <line class="cls-7" x1="510.8387" y1="399.084" x2="510.8387" y2="446.4742"/>
  <line class="cls-7" x1="510.8387" y1="350.4597" x2="535.0226" y2="350.4597"/>
  <polyline class="cls-7" points="452.323 339.435 366.702 339.435 366.702 355.281"/>
  <line class="cls-7" x1="561.1908" y1="350.4597" x2="594.0135" y2="350.4597"/>
  <line class="cls-7" x1="567.3565" y1="269.0073" x2="594.0135" y2="269.0073"/>
  <line class="cls-7" x1="510.8387" y1="430.1838" x2="535.0226" y2="430.1838"/>
  <line class="cls-7" x1="560.4503" y1="430.1838" x2="594.0135" y2="430.1838"/>
  <line class="cls-7" x1="597.7159" y1="100.6734" x2="597.7159" y2="733.6827"/>
  <line class="cls-7" x1="452.6259" y1="174.5562" x2="452.6259" y2="432.6684"/>
  <line class="cls-5" x1="554.3135" y1="42.18" x2="554.3135" y2="61.6868"/>
  <line class="cls-5" x1="561.5986" y1="43.3316" x2="555.5707" y2="61.8829"/>
  <line class="cls-5" x1="568.1712" y1="46.6782" x2="556.7055" y2="62.4585"/>
  <line class="cls-5" x1="573.3878" y1="51.8924" x2="557.607" y2="63.3562"/>
  <line class="cls-5" x1="576.7378" y1="58.4631" x2="558.1874" y2="64.4891"/>
  <line class="cls-5" x1="577.8933" y1="65.7473" x2="558.3889" y2="65.7453"/>
  <line class="cls-5" x1="576.7417" y1="73.0315" x2="558.1922" y2="67.0027"/>
  <line class="cls-5" x1="573.395" y1="79.6042" x2="557.6167" y2="68.1384"/>
  <line class="cls-5" x1="547.0292" y1="43.3355" x2="553.0571" y2="61.8873"/>
  <line class="cls-5" x1="540.4576" y1="46.686" x2="551.9233" y2="62.4663"/>
  <line class="cls-5" x1="535.2433" y1="51.9026" x2="551.0247" y2="63.3677"/>
  <line class="cls-5" x1="531.8968" y1="58.4757" x2="550.4481" y2="64.5026"/>
  <line class="cls-5" x1="530.7446" y1="65.7608" x2="550.2504" y2="65.7603"/>
  <line class="cls-5" x1="531.9007" y1="73.0455" x2="550.4511" y2="67.0171"/>
  <line class="cls-5" x1="535.251" y1="79.6162" x2="551.0305" y2="68.1505"/>
  <path class="cls-5" d="M559.7656,98.4919s-5.1949-2.2933-4.94-13.1709,13.2079-11.79,13.8626-11.8143c5.5477-.2082,13.8511,4.14,13.8212,12.1281-.0385,10.2547-6.5427,13.4818-6.5427,13.4818s-6.9357,4.32-6.9878,8.5367c-.0679,5.5173,0,10.4128,0,10.4128" transform="translate(-14.3682 -21.9648)"/>
  <polyline class="cls-7" points="402.652 492.568 430.016 492.568 430.016 589.55 400.677 589.55"/>
  <path class="cls-2" d="M361.8138,510.9226h-4.747s.8985-11.3279-4.8565-14.9579-9.117-3.9087-9.117-3.9087v-6.8417H356.927v6.4223h4.8868Z" transform="translate(-14.3682 -21.9648)"/>
  <path class="cls-2" d="M268.2724,510.9226h4.747s-.8986-11.3279,4.8564-14.9579,9.1171-3.9087,9.1171-3.9087v-6.8417H273.1592v6.4223h-4.8868Z" transform="translate(-14.3682 -21.9648)"/>
  <line class="cls-3" x1="272.4135" y1="467.7232" x2="328.7251" y2="467.7232"/>
  <line class="cls-7" x1="510.8387" y1="476.8248" x2="510.8387" y2="501.3318"/>
  <polygon class="cls-2" points="436.865 487.298 442.205 490.516 437.413 497.224 430.363 497.224 436.865 487.298"/>
  <polygon class="cls-2" points="502.869 487.298 497.53 490.516 503.452 498.262 511.753 498.262 502.869 487.298"/>
  <polygon class="cls-2" points="451.514 465.941 458.565 465.941 458.565 471.829 455.621 471.829 454.595 473.677 449.255 470.323 451.514 465.941"/>
  <polygon class="cls-2" points="487.686 465.941 480.636 465.941 480.636 471.829 483.579 471.829 484.606 473.677 489.945 470.323 487.686 465.941"/>
  <line class="cls-3" x1="369.1569" y1="492.5801" x2="404.3838" y2="492.5801"/>
  <line class="cls-3" x1="197.3675" y1="492.5801" x2="232.5944" y2="492.5801"/>
  <line class="cls-3" x1="108.506" y1="605.7575" x2="132.4764" y2="605.7575"/>
  <line class="cls-3" x1="191.1449" y1="605.7575" x2="215.1152" y2="605.7575"/>
  <line class="cls-3" x1="282.956" y1="492.5801" x2="318.1829" y2="492.5801"/>
  <line class="cls-3" x1="457.6848" y1="468.7703" x2="481.5442" y2="468.7703"/>
  <line class="cls-3" x1="369.1569" y1="589.5501" x2="404.3838" y2="589.5501"/>
  <line class="cls-3" x1="439.1243" y1="489.0783" x2="452.0618" y2="471.4178"/>
  <line class="cls-3" x1="487.2468" y1="471.4178" x2="500.8004" y2="489.489"/>
  <line class="cls-7" x1="370.1442" y1="492.5676" x2="317.3239" y2="492.5676"/>
  <line class="cls-7" x1="284.4139" y1="492.5676" x2="231.5936" y2="492.5676"/>
  <line class="cls-8" x1="278.4896" y1="588.233" x2="258.0032" y2="588.233"/>
  <line class="cls-7" x1="198.1904" y1="492.7806" x2="165.4448" y2="492.7806"/>
  <line class="cls-8" x1="369.4862" y1="589.5501" x2="320.615" y2="589.5501"/>
  <rect class="cls-2" x="264.0099" y="494.9336" width="7.5691" height="4.4428"/>
  <rect class="cls-2" x="325.8808" y="494.9336" width="7.5691" height="4.4428"/>
  <rect class="cls-2" x="337.0915" y="494.9336" width="7.5691" height="4.4428"/>
  <rect class="cls-2" x="264.0099" y="584.119" width="7.5691" height="4.4428"/>
  <rect class="cls-2" x="325.8808" y="584.119" width="7.5691" height="4.4428"/>
  <rect class="cls-2" x="337.0915" y="584.119" width="7.5691" height="4.4428"/>
  <rect class="cls-2" x="264.0099" y="590.8662" width="7.5691" height="4.4428"/>
  <rect class="cls-2" x="325.8808" y="590.8662" width="7.5691" height="4.4428"/>
  <rect class="cls-2" x="337.0915" y="590.8662" width="7.5691" height="4.4428"/>
  <rect class="cls-2" x="264.0099" y="623.6118" width="7.5691" height="4.4428"/>
  <rect class="cls-2" x="325.8808" y="623.6118" width="7.5691" height="4.4428"/>
  <rect class="cls-2" x="337.0915" y="623.6118" width="7.5691" height="4.4428"/>
  <rect class="cls-5" x="334.5872" y="536.4087" width="9.4616" height="9.2038"/>
  <circle class="cls-5" cx="339.3179" cy="541.0125" r="3.0809"/>
  <rect class="cls-5" x="323.9597" y="536.4087" width="9.4617" height="9.2038"/>
  <circle class="cls-5" cx="328.6905" cy="541.0125" r="3.0809"/>
  <rect class="cls-5" x="263.092" y="536.4087" width="9.4617" height="9.2038"/>
  <circle class="cls-5" cx="267.8228" cy="541.0125" r="3.0809"/>
  <polyline class="cls-9" points="5.87 97.471 5.007 728.699 40.458 728.699"/>
  <polygon class="cls-2" points="1.632 26.234 1.632 104.488 34.74 104.488 34.74 98.536 29.899 98.536 29.899 95.71 21.865 95.71 21.865 87.528 17.103 87.528 17.103 81.726 8.029 81.726 8.029 46.319 16.956 46.319 16.956 40.218 21.716 40.218 21.716 31.292 34.74 31.292 34.74 26.234 1.632 26.234"/>
  <polygon class="cls-2" points="81.573 80.956 88.392 80.956 88.392 97.039 90.41 97.039 90.41 105.668 82.337 105.668 82.337 103.58 65.082 103.58 65.082 99.128 67.728 99.128 67.728 96.414 75.52 96.414 75.52 88.203 81.502 88.203 81.573 80.956"/>
  <polygon class="cls-2" points="90.177 24.768 81.724 24.768 81.724 26.234 66.082 26.234 66.082 31.292 76.027 31.292 76.027 40.218 81.771 40.218 81.771 47.821 88.263 47.821 88.263 33.173 90.177 33.173 90.177 24.768"/>
  <circle class="cls-5" cx="71.1545" cy="22.0074" r="2.7769"/>
  <circle class="cls-2" cx="88.4264" cy="42.2888" r="2.7763"/>
  <circle class="cls-2" cx="88.4264" cy="86.7635" r="2.7764"/>
  <circle class="cls-5" cx="71.155" cy="22.0074" r="4.3815"/>
  <circle class="cls-5" cx="29.2047" cy="22.0074" r="2.7768"/>
  <circle class="cls-5" cx="29.2054" cy="22.0074" r="4.3818"/>
  <path class="cls-3" d="M101.564,111.9149h18.0268V103.28h-2.1582V69.384h2.1582V60.8546H106.314V45.7429H91.4177V26.8508H81.1418s-8.4258-4.386-16.1318-4.386c-8.6735,0-17.0549,4.5474-17.0549,4.5474H38.05V44.878H16v3.3211" transform="translate(-14.3682 -21.9648)"/>
  <polyline class="cls-3" points="88.263 47.419 98.854 47.419 98.854 81.315 88.427 81.315"/>
  <line class="cls-3" x1="33.5868" y1="28.273" x2="67.6967" y2="28.273"/>
  <line class="cls-3" x1="85.1108" y1="47.4192" x2="85.1108" y2="81.3151"/>
  <path class="cls-3" d="M48.8632,48.3543V30.6577a37.13,37.13,0,0,1,15.56-3.9829c8.2932-.041,16.2161,4.3108,16.2161,4.3108V48.3543" transform="translate(-14.3682 -21.9648)"/>
  <line class="cls-10" x1="86.5484" y1="104.4876" x2="86.5484" y2="269.0073"/>
  <circle class="cls-2" cx="91.0827" cy="120.3558" r="3.0222"/>
  <circle class="cls-2" cx="91.0827" cy="165.9818" r="3.0224"/>
  <circle class="cls-2" cx="91.0827" cy="212.3276" r="3.0224"/>
  <line class="cls-9" x1="90.2579" y1="263.824" x2="90.2579" y2="285.0508"/>
  <line class="cls-9" x1="90.2589" y1="308.7459" x2="90.2589" y2="334.6282"/>
  <line class="cls-9" x1="90.2579" y1="360.0858" x2="90.2579" y2="385.1288"/>
  <line class="cls-9" x1="90.2589" y1="404.5141" x2="90.2589" y2="446.2274"/>
  <line class="cls-10" x1="8.5433" y1="266.9893" x2="86.5484" y2="266.9893"/>
  <line class="cls-10" x1="8.5433" y1="311.9792" x2="64.6287" y2="311.9792"/>
  <line class="cls-10" x1="27.9016" y1="414.8807" x2="90.2589" y2="414.8807"/>
  <line class="cls-3" x1="90.2589" y1="283.8167" x2="90.2589" y2="311.9792"/>
  <line class="cls-3" x1="90.2589" y1="333.922" x2="90.2589" y2="360.9497"/>
  <line class="cls-3" x1="90.2589" y1="384.0865" x2="90.2589" y2="409.6135"/>
  <line class="cls-3" x1="90.2589" y1="444.4128" x2="90.2589" y2="474.1001"/>
  <polygon class="cls-2" points="368.828 114.496 368.828 92.775 456.368 92.775 456.368 177.189 438.597 177.189 438.597 179.163 432.179 179.163 432.179 170.607 440.078 170.607 440.078 163.038 443.862 163.038 443.862 154.646 450.444 154.646 450.444 114.002 444.027 114.002 444.027 106.926 439.584 106.926 439.584 101.826 383.143 101.826 383.143 106.104 378.701 106.104 378.701 114.587 368.828 114.496"/>
  <path class="cls-2" d="M383.1959,175.7878h9.0505v8.7213h5.5945v6.5818H405.41v10.0373h-7.4047v-2.3034h-6.5818S385.171,214.6211,371.02,214.95v2.3039h-7.8984V214.128l-1.6458-1.9746,4.6077-4.7721,2.4682,2.1139s9.5432,1.5065,17.1128-10.1766a17.8145,17.8145,0,0,1-2.4682-1.7114Z" transform="translate(-14.3682 -21.9648)"/>
  <line class="cls-3" x1="374.4636" y1="114.5476" x2="374.4636" y2="153.823"/>
  <circle class="cls-2" cx="409.9716" cy="135.5481" r="4.0661"/>
  <path class="cls-5" d="M405.2838,171.3667a23.5559,23.5559,0,1,1,38.1188-.012" transform="translate(-14.3682 -21.9648)"/>
  <line class="cls-5" x1="409.9653" y1="111.9743" x2="409.9653" y2="131.4811"/>
  <line class="cls-5" x1="417.2505" y1="113.1259" x2="411.2225" y2="131.6772"/>
  <line class="cls-5" x1="423.8231" y1="116.4725" x2="412.3573" y2="132.2528"/>
  <line class="cls-5" x1="429.0397" y1="121.6867" x2="413.2588" y2="133.1505"/>
  <line class="cls-5" x1="432.3897" y1="128.2574" x2="413.8393" y2="134.2834"/>
  <line class="cls-5" x1="433.5452" y1="135.5416" x2="414.0408" y2="135.5396"/>
  <line class="cls-5" x1="432.3935" y1="142.8258" x2="413.8441" y2="136.797"/>
  <line class="cls-5" x1="429.0469" y1="149.3984" x2="413.2685" y2="137.9327"/>
  <line class="cls-5" x1="402.6811" y1="113.1298" x2="408.709" y2="131.6816"/>
  <line class="cls-5" x1="396.1094" y1="116.4802" x2="407.5752" y2="132.2605"/>
  <line class="cls-5" x1="390.8953" y1="121.6968" x2="406.6765" y2="133.162"/>
  <line class="cls-5" x1="387.5487" y1="128.2699" x2="406.1" y2="134.2968"/>
  <line class="cls-5" x1="386.3965" y1="135.5551" x2="405.9024" y2="135.5546"/>
  <line class="cls-5" x1="387.5525" y1="142.8398" x2="406.1029" y2="136.8114"/>
  <line class="cls-5" x1="390.903" y1="149.4104" x2="406.6824" y2="137.9448"/>
  <path class="cls-5" d="M415.4175,168.2861s-5.1949-2.2932-4.94-13.1708,13.2079-11.79,13.8626-11.8143c5.5478-.2082,13.8511,4.14,13.8213,12.1281-.0386,10.2547-6.5428,13.4818-6.5428,13.4818s-6.9357,4.32-6.9877,8.5366c-.068,5.5174,0,10.4129,0,10.4129" transform="translate(-14.3682 -21.9648)"/>
  <polyline class="cls-3" points="497.814 250.465 512.129 250.465 512.129 265.272"/>
  <polyline class="cls-11" points="353.206 320.018 367.521 320.018 367.521 336.306"/>
  <g>
    <line class="cls-3" x1="351.3441" y1="194.3233" x2="351.3441" y2="195.3233"/>
    <line class="cls-12" x1="351.3441" y1="197.3322" x2="351.3441" y2="316.8608"/>
    <line class="cls-3" x1="351.3441" y1="317.8652" x2="351.3441" y2="318.8652"/>
  </g>
  <path class="cls-13" d="M367.0342,343.9973s11.7121,4.3922,11.7121,14.499" transform="translate(-14.3682 -21.9648)"/>
  <polygon class="cls-2" points="346.149 321.655 349.124 317.641 353.206 317.641 355.074 320.018 350.919 325.622 346.149 321.655"/>
  <line class="cls-6" x1="368.7765" y1="380.2964" x2="389.152" y2="380.2964"/>
  <line class="cls-6" x1="402.5235" y1="380.2964" x2="449.4822" y2="380.2964"/>
  <polygon class="cls-2" points="82.534 476.266 88.364 476.266 88.364 474.1 91.864 474.1 91.864 490.343 94.924 485.355 100.206 489.664 95.071 496.631 92.466 496.631 92.466 503.948 87.927 504.4 87.927 502.956 81.295 496.392 81.295 494.444 82.68 494.444 82.534 476.266"/>
  <polygon class="cls-2" points="106.186 470.838 109.716 466.86 109.716 463.95 119.03 463.95 119.03 470.26 114.422 470.26 111.284 474.817 106.186 470.838"/>
  <polygon class="cls-2" points="150.99 470.838 147.46 466.86 147.46 463.95 138.146 463.95 138.146 470.26 142.755 470.26 145.892 474.817 150.99 470.838"/>
  <polygon class="cls-2" points="162.068 485.2 157.462 489.25 163.227 496.631 165.99 496.631 165.99 489.846 162.068 485.2"/>
  <line class="cls-3" x1="118.1144" y1="467.1746" x2="139.0582" y2="467.1746"/>
  <line class="cls-3" x1="148.0992" y1="471.3812" x2="161.0569" y2="488.2385"/>
  <line class="cls-3" x1="109.8269" y1="471.3812" x2="96.5669" y2="489.2498"/>
  <polyline class="cls-8" points="108.682 605.758 78.952 605.758 78.952 594.742"/>
  <line class="cls-6" x1="38.6438" y1="518.1697" x2="38.6438" y2="567.1884"/>
  <line class="cls-6" x1="38.6438" y1="499.6251" x2="38.6438" y2="503.986"/>
  <line class="cls-6" x1="27.1231" y1="567.1884" x2="47.1723" y2="567.1884"/>
  <line class="cls-6" x1="70.6504" y1="567.1884" x2="80.6753" y2="567.1884"/>
  <line class="cls-5" x1="39.8162" y1="523.3569" x2="77.3055" y2="523.3569"/>
  <line class="cls-5" x1="39.8162" y1="527.3967" x2="77.3055" y2="527.3967"/>
  <line class="cls-5" x1="39.8162" y1="531.4346" x2="77.3055" y2="531.4346"/>
  <line class="cls-5" x1="39.8162" y1="535.4744" x2="77.3055" y2="535.4744"/>
  <line class="cls-5" x1="39.8162" y1="539.5133" x2="77.3055" y2="539.5133"/>
  <line class="cls-5" x1="39.8162" y1="543.5521" x2="77.3055" y2="543.5521"/>
  <line class="cls-5" x1="39.8162" y1="547.5909" x2="77.3055" y2="547.5909"/>
  <polyline class="cls-11" points="104.436 603.347 104.436 585.091 80.675 585.091"/>
  <polyline class="cls-8" points="78.952 587.682 78.952 505.375 70.65 497.619 66.342 497.619"/>
  <line class="cls-8" x1="47.1723" y1="497.6188" x2="28.3592" y2="497.6188"/>
  <line class="cls-8" x1="131.8319" y1="605.7575" x2="192.1321" y2="605.7575"/>
  <line class="cls-8" x1="131.8319" y1="628.77" x2="192.1321" y2="628.77"/>
  <line class="cls-8" x1="214.6866" y1="628.77" x2="287.3126" y2="628.77"/>
  <line class="cls-8" x1="310.1028" y1="628.77" x2="374.2611" y2="628.77"/>
  <line class="cls-8" x1="396.1403" y1="628.77" x2="430.363" y2="628.77"/>
  <line class="cls-8" x1="54.9732" y1="628.77" x2="109.2417" y2="628.77"/>
  <line class="cls-8" x1="8.3886" y1="628.77" x2="32.4953" y2="628.77"/>
  <polyline class="cls-8" points="214.478 605.758 255.25 605.758 255.25 495.496"/>
  <line class="cls-8" x1="169.2315" y1="492.7806" x2="169.2315" y2="503.8742"/>
  <line class="cls-8" x1="169.2315" y1="519.8483" x2="169.2315" y2="604.9736"/>
  <rect class="cls-2" x="258.0032" y="537.0527" width="2.7223" height="8.043"/>
  <line class="cls-13" x1="31.2309" y1="417.6585" x2="31.2309" y2="453.7043"/>
  <line class="cls-13" x1="31.2309" y1="460.7437" x2="31.2309" y2="480.7393"/>
  <circle class="cls-2" cx="567.5703" cy="721.146" r="2.7437"/>
  <circle class="cls-2" cx="567.5703" cy="616.4857" r="2.7435"/>
  <circle class="cls-2" cx="591.1918" cy="641.1558" r="2.7436"/>
  <circle class="cls-2" cx="591.1918" cy="701.9157" r="2.7434"/>
  <path class="cls-5" d="M596.4243,637.86a9.862,9.862,0,0,0-9.1113,6.0915c.1754-.0077.3475-.0261.5254-.0261A11.4529,11.4529,0,0,1,599.2309,657.17a9.8588,9.8588,0,0,0-2.8066-19.31Z" transform="translate(-14.3682 -21.9648)"/>
  <path class="cls-5" d="M606.4539,735.07a9.862,9.862,0,0,0-6.092-9.1122c.0077.1754.026.348.026.5254a11.4528,11.4528,0,0,1-13.2446,11.3925,9.8589,9.8589,0,0,0,19.3106-2.8057Z" transform="translate(-14.3682 -21.9648)"/>
  <line class="cls-9" x1="595.9322" y1="728.699" x2="553.9953" y2="728.699"/>
  <line class="cls-9" x1="523.7747" y1="728.699" x2="482.2192" y2="728.699"/>
  <line class="cls-9" x1="449.61" y1="728.699" x2="408.0543" y2="728.699"/>
  <line class="cls-9" x1="189.4845" y1="728.699" x2="145.654" y2="728.699"/>
  <line class="cls-9" x1="245.907" y1="728.699" x2="219.2615" y2="728.699"/>
  <line class="cls-9" x1="114.4959" y1="728.699" x2="72.6472" y2="728.699"/>
  <polygon class="cls-2" points="244.067 723.754 244.067 738.567 259.168 738.567 259.168 732.197 266.444 732.197 266.444 735.973 273.378 735.973 273.378 732.129 278.183 732.129 278.183 723.754 244.067 723.754"/>
  <polygon class="cls-2" points="354.731 723.754 354.731 738.567 339.629 738.567 339.629 732.197 332.353 732.197 332.353 735.973 325.42 735.973 325.42 732.129 320.615 732.129 320.615 723.754 354.731 723.754"/>
  <line class="cls-6" x1="347.4272" y1="628.6669" x2="347.4272" y2="660.5775"/>
  <line class="cls-6" x1="159.332" y1="628.6669" x2="159.332" y2="660.5775"/>
  <line class="cls-6" x1="159.332" y1="688.4426" x2="159.332" y2="723.8897"/>
  <line class="cls-6" x1="248.7237" y1="628.6669" x2="248.7237" y2="660.5775"/>
  <line class="cls-6" x1="248.7237" y1="688.4426" x2="248.7237" y2="725.4045"/>
  <line class="cls-6" x1="347.4272" y1="690.2041" x2="347.4272" y2="726.2819"/>
  <line class="cls-7" x1="558.9939" y1="520.4317" x2="596.1563" y2="520.4317"/>
  <line class="cls-7" x1="555.2091" y1="610.103" x2="596.6264" y2="610.103"/>
  <path class="cls-2" d="M521.156,548.327h6.6193L545.6735,537.48s5.6933,1.76,3.8427,6.6093c-.7854,2.0575-4.1681,1.8955-6.2806,1.83a24.1377,24.1377,0,0,0-8.1529.8244c-2.3313.7838-6.6454,2.9069-6.7775,5.6875s0,66.3311,0,68.4493,5.4286,8.6263,8.8707,8.7487,5.2962,0,5.2962,0v6.3547H521.156Z" transform="translate(-14.3682 -21.9648)"/>
  <line class="cls-7" x1="430.0159" y1="608.1323" x2="430.0159" y2="663.7399"/>
  <line class="cls-7" x1="430.0159" y1="692.8951" x2="430.0159" y2="725.4045"/>
  <path class="cls-14" d="M526.31,538.9984h22.3149a2.7985,2.7985,0,0,1,2.7985,2.7985v49.479a2.799,2.799,0,0,1-2.799,2.799H526.31a2.7985,2.7985,0,0,1-2.7985-2.7985v-49.479A2.799,2.799,0,0,1,526.31,538.9984Z"/>
  <line class="cls-11" x1="561.6266" y1="524.3886" x2="561.6266" y2="585.0282"/>
  <path class="cls-5" d="M569.5774,617.2738S585.18,620.5307,585.18,606.993s.1234-44.6375,0-45.1312a7.7857,7.7857,0,0,1,7.8984-6.6642c6.5408,0,7.343,6.294,7.343,7.343V616.04" transform="translate(-14.3682 -21.9648)"/>
  <path class="cls-5" d="M592.7084,562.9726s-.7651,47.5136-.7651,50.2287-1.3156,14.9328-22.366,14.9328" transform="translate(-14.3682 -21.9648)"/>
  <line class="cls-5" x1="561.6266" y1="545.0803" x2="593.9364" y2="545.0803"/>
  <line class="cls-5" x1="561.6266" y1="549.9117" x2="593.9364" y2="549.9117"/>
  <line class="cls-5" x1="561.6266" y1="554.7441" x2="593.9364" y2="554.7441"/>
  <line class="cls-5" x1="561.6266" y1="559.5754" x2="593.9364" y2="559.5754"/>
  <line class="cls-5" x1="561.6266" y1="564.4068" x2="593.9364" y2="564.4068"/>
  <line class="cls-5" x1="561.6266" y1="569.2392" x2="593.9364" y2="569.2392"/>
  <line class="cls-5" x1="561.6266" y1="574.0706" x2="593.9364" y2="574.0706"/>
  <circle class="cls-5" cx="579.9445" cy="538.4161" r="2.5917"/>
  <path class="cls-5" d="M594.3128,546.929a13.4519,13.4519,0,1,1-10.9817,21.2239" transform="translate(-14.3682 -21.9648)"/>
  <line class="cls-5" x1="562.1732" y1="576.9206" x2="577.7815" y2="579.8825"/>
  <line class="cls-5" x1="562.1732" y1="580.4996" x2="577.5751" y2="588.8916"/>
  <line class="cls-5" x1="562.1732" y1="584.0785" x2="576.7214" y2="595.6522"/>
  <polyline class="cls-5" points="572.256 601.631 561.627 584.696 565.677 604.855"/>
  <line class="cls-5" x1="580.4382" y1="535.8244" x2="582.5362" y2="525.2139"/>
  <line class="cls-5" x1="581.4496" y1="536.2496" x2="587.6819" y2="527.4092"/>
  <line class="cls-5" x1="582.2007" y1="537.0489" x2="591.4894" y2="531.5079"/>
  <line class="cls-5" x1="582.5613" y1="538.0853" x2="593.301" y2="536.8011"/>
  <line class="cls-5" x1="582.4696" y1="539.1787" x2="592.8025" y2="542.373"/>
  <line class="cls-5" x1="581.9413" y1="540.14" x2="590.0817" y2="547.2603"/>
  <line class="cls-5" x1="581.0678" y1="540.8033" x2="585.608" y2="550.6185"/>
  <line class="cls-5" x1="579.9995" y1="541.054" x2="580.1547" y2="551.867"/>
  <line class="cls-5" x1="578.9216" y1="540.8486" x2="574.6653" y2="550.7891"/>
  <line class="cls-5" x1="578.0201" y1="540.2219" x2="570.089" y2="547.5727"/>
</svg>
